<?xml version="1.0" encoding="UTF-8" standalone="no"?> <svg xmlns:dc="http://purl.org/dc/elements/1.1/" xmlns:cc="http://creativecommons.org/ns#" xmlns:rdf="http://www.w3.org/1999/02/22-rdf-syntax-ns#" xmlns:svg="http://www.w3.org/2000/svg" xmlns="http://www.w3.org/2000/svg" viewBox="0 0 1122.5197 793.70081" height="793.70081" width="1122.5197" xml:space="preserve" id="svg2"> <metadata id="metadata8"></metadata> <defs id="defs6"></defs> <g transform="matrix(1.3333333,0,0,-1.3333333,0,793.7008)" id="g10"> <g id="g12"> <path id="path14" style="fill:#e31f25;fill-opacity:1;fill-rule:evenodd;stroke:none" d="m 241.2309,286.8814 -22.8056,-23.0057 0.0136,20.6932 0.01,15.2575 0.017,26.3002 22.5584,-22.3603 c 4.6284,-4.5884 4.6984,-12.1187 0.2066,-16.8849 z m -10.8678,14.6022 c 3.4833,0.0328 6.3037,-2.7635 6.3015,-6.247 -0.002,-3.4827 -2.8265,-6.3323 -6.3097,-6.3652 -3.4835,-0.0329 -6.3045,2.7635 -6.3022,6.2464 0.002,3.4832 2.827,6.3329 6.3104,6.3658 z m -20.4125,33.0837 -0.0218,-33.6668 -0.0117,-17.629 -0.0181,-27.9964 -9.6803,-9.7696 -0.2217,-0.2194 c -1.2467,-1.195 -2.6912,-2.0732 -4.2213,-2.6376 l 0.0212,39.4146 0.0133,20.6104 0.0329,44.3126 c 1.5863,-0.5689 3.0725,-1.4811 4.3418,-2.7391 z m -49.6755,-13.5423 23.5313,23.7379 c 1.0666,0.9151 2.258,1.6163 3.5124,2.1056 l -0.0304,-43.1274 -0.0141,-21.9271 -0.0253,-39.1363 c -1.508,0.5737 -2.9242,1.463 -4.138,2.6666 l -22.8702,22.6689 0.009,14.2906 0.0161,24.8346 0.009,13.8866 z m -18.6633,-18.8271 6.4208,6.4766 3.7187,3.7519 -0.004,-4.2188 -0.0164,-25.2258 -0.004,-6.5282 -7.5713,7.5045 -1.8837,1.8672 c -4.4674,4.4288 -4.6862,11.5973 -0.6593,16.3726"></path> <path id="path16" style="fill:#e31f25;fill-opacity:1;fill-rule:evenodd;stroke:none" d="m 665.2843,320.2302 4.1334,-13.2035 4.6627,15.1498 4.8632,15.8031 4.4509,14.4615 19.7479,0.1863 -4.7274,-12.7608 -4.536,-12.2425 -14.1296,-38.1387 -21.0659,-0.1988 -10.5123,27.7663 -6.5523,17.3086 -6.6722,17.6227 20.3347,0.1919 5.0108,-16.005 z m -91.5877,31.1766 52.0951,0.4912 -0.009,-13.4337 -32.6109,-0.3075 -0.005,-8.1462 -10e-4,-1.8595 30.2522,0.2854 -0.008,-12.8344 -30.2524,-0.2855 -0.003,-4.3177 -0.005,-8.0756 33.5631,0.3163 -0.009,-14.2546 -53.0473,-0.5 0.0139,21.2499 0.0119,18.387 0.0151,23.2849 z m -37.6745,-39.2803 -3.7941,12.3225 -3.1505,10.2322 -3.3159,-10.8586 -3.6131,-11.8268 z m -33.0412,-3.1493 4.919,13.1139 10.8017,28.7972 21.1981,0.1999 9.4115,-24.9832 6.4114,-17.0212 7.7962,-20.6943 -20.3485,-0.1919 -3.0847,10.3581 -22.1505,-0.209 -3.0537,-10.4159 -19.865,-0.1873 z m -77.7594,41.0295 18.1658,0.1715 21.8152,-31.8798 1.851,-2.7054 0.002,2.8845 0.0204,31.9241 18.3268,0.1726 -0.0195,-30.3199 -0.007,-10.7033 -0.0145,-21.8985 -18.3265,-0.1729 -17.337,25.268 -2.6028,3.795 -3.6093,5.2597 -0.004,-5.6098 -0.002,-2.7961 -0.017,-26.1391 -18.2832,-0.1723 0.0176,27.335 5e-4,0.7932 0.0227,34.7935 z m -75.3046,-30.4313 0.019,29.7215 19.4113,0.1832 -0.0198,-30.449 -0.005,-7.9633 c -6e-4,-0.6534 0.0337,-1.2818 0.102,-1.8811 0.2914,-2.5503 1.2056,-4.5955 2.7346,-6.135 1.9032,-1.9151 4.54,-2.8573 7.9237,-2.8253 3.3401,0.0315 5.9788,1.0094 7.8837,2.9307 1.8885,1.9043 2.8432,4.6214 2.8471,8.1029 v 0.0105 l 0.004,6.5752 0.0207,31.837 19.4111,0.1829 -0.0216,-33.505 -0.002,-3.2193 -6e-4,-0.794 c -0.002,-3.7193 -0.5907,-7.2283 -1.7501,-10.5497 -1.1597,-3.3069 -2.9781,-6.2265 -5.4547,-8.7239 -2.4772,-2.4984 -5.0723,-4.2534 -7.7976,-5.2894 -3.7802,-1.427 -8.3077,-2.1733 -13.6114,-2.2232 -3.0611,-0.0289 -6.4009,0.1448 -10.0199,0.5507 -3.6181,0.3904 -6.635,1.2113 -9.0666,2.4633 -2.4313,1.2518 -4.6565,3.0476 -6.6767,5.372 -2.0203,2.3255 -3.3953,4.729 -4.1406,7.2125 -0.6593,2.1928 -1.1367,4.2488 -1.4335,6.1701 -0.2417,1.5738 -0.3631,3.0569 -0.3622,4.449 l 0.005,7.7967 z m -72.087,29.0418 28.8895,0.2724 c 5.6846,0.0536 10.2836,-0.6797 13.7991,-2.1849 3.5002,-1.5191 6.3995,-3.7041 8.6831,-6.5688 2.2833,-2.8794 3.937,-6.218 4.9745,-10.0465 1.8964,-7.1017 2.0616,-16.7675 0.4343,-23.9318 -0.33,-1.4485 -0.7348,-2.7519 -1.2141,-3.9107 -1.5268,-3.7213 -3.6525,-6.8468 -6.3785,-9.3628 -2.7122,-2.5302 -5.6291,-4.2282 -8.7497,-5.0924 -4.2642,-1.1829 -8.1318,-1.7915 -11.5892,-1.8241 l -28.8899,-0.2725 0.01,14.9556 0.009,13.493 0.0224,34.4735 z m 35.1042,-17.6151 c -2.181,2.4404 -5.7855,3.6377 -10.8232,3.5904 l -6.7303,-0.0635 -0.0111,-17.1127 -0.01,-14.8984 -0.001,-2.3581 6.6415,0.0623 c 4.0731,0.0386 6.9597,0.5049 8.6735,1.4298 1.0559,0.5599 1.9726,1.3797 2.7516,2.4517 0.4855,0.6701 0.917,1.4386 1.2951,2.304 2.348,5.4505 2.1572,20.1532 -1.7861,24.5945"></path> <path id="path18" style="fill:#e31f25;fill-opacity:1;fill-rule:nonzero;stroke:none" d="m 290.556,244.5369 4.6831,17.508 0.2733,0.002 4.8665,-17.4178 4.0249,0.038 6.5276,20.5268 -3.0016,-0.0283 -5.2988,-17.9918 -0.2718,-0.003 -4.9346,17.8954 -3.9228,-0.0371 -4.7526,-17.9867 -0.273,-0.002 -5.3424,17.8914 -3.0697,-0.0289 6.535,-20.4035 3.9569,0.0371 z m 42.169,21.2381 c -3.2408,-0.0307 -6.038,-1.3193 -7.9486,-3.3497 -1.8099,-1.9276 -2.8687,-4.529 -2.8706,-7.3608 -0.002,-2.7623 1.0539,-5.3098 2.7921,-7.2039 1.9088,-2.0285 4.7047,-3.3324 8.0132,-3.3013 3.2069,0.0304 5.9361,1.2844 7.8469,3.2797 1.8777,1.9281 2.9364,4.5306 2.9384,7.4293 0.002,2.9336 -1.0876,5.6177 -3.0308,7.5439 -1.9091,1.8575 -4.6029,2.9922 -7.7406,2.9628 z m -8.0566,-10.6844 c 10e-4,2.3196 0.8221,4.2718 2.1532,5.7166 1.4672,1.5492 3.5824,2.5243 5.9017,2.5461 2.2516,0.0213 4.3314,-0.8801 5.7966,-2.4018 1.3295,-1.3858 2.1815,-3.3562 2.1798,-5.7095 -0.001,-2.3196 -0.822,-4.2707 -2.1531,-5.7166 -1.4332,-1.5818 -3.5142,-2.5226 -5.8337,-2.5444 -2.3537,-0.0224 -4.4675,0.913 -5.8987,2.469 -1.3291,1.4195 -2.1472,3.3562 -2.1458,5.6406 z m 49.3549,3.331 c 10e-4,2.1147 -0.8156,3.8801 -2.145,5.1979 -1.4312,1.3507 -3.3752,2.1178 -5.7628,2.0951 l -9.7209,-0.0916 -0.0133,-20.4653 2.7967,0.0264 0.004,5.832 7.4356,0.0703 3.4418,-5.7997 3.1037,0.0292 -3.8846,6.3077 c 1.3986,0.5581 2.5594,1.4904 3.3443,2.5211 0.8878,1.1684 1.4,2.6736 1.4009,4.2769 z m -14.8337,4.7373 6.7873,0.064 c 1.8765,0.0176 3.2402,-0.6176 4.0929,-1.565 0.7155,-0.8453 1.1579,-2.0353 1.1571,-3.2627 -9e-4,-1.2282 -0.4448,-2.4596 -1.2645,-3.3885 -0.8187,-0.8609 -2.0475,-1.4516 -3.7868,-1.4681 l -6.9925,-0.0657 0.006,9.686 z m 43.5787,-15.1424 -13.1318,-0.1239 0.0116,18.0439 -2.7623,-0.026 -0.0134,-20.4653 15.8942,0.1499 0.002,2.4214 z m 12.6992,18.1635 -0.0133,-20.4653 8.4248,0.0794 c 2.9676,0.0281 5.5259,1.0752 7.3352,2.8318 1.9106,1.8264 3.0388,4.4963 3.0405,7.4982 0.002,2.8656 -0.9856,5.3116 -2.6898,7.1031 -1.8751,1.9267 -4.5349,3.062 -7.6726,3.0322 z m 8.2871,-2.4463 c 2.4216,0.0227 4.3305,-0.7775 5.6596,-2.0951 1.3295,-1.3518 2.0444,-3.2896 2.043,-5.5411 -0.002,-2.2842 -0.7189,-4.2355 -2.1181,-5.6469 -1.2971,-1.3085 -3.2071,-2.1458 -5.5944,-2.1682 l -5.5262,-0.0522 0.01,15.4514 5.5262,0.0521 z m 46.0723,-7.2051 c 0.002,2.3522 0.9241,4.3733 2.3573,5.8204 1.4332,1.4457 3.4461,2.3168 5.6977,2.338 2.6946,0.0255 4.5014,-0.8776 6.2407,-2.3967 l 1.7065,1.8587 c -2.2162,1.9913 -4.5689,3.0266 -7.9455,2.9945 -3.1717,-0.0297 -5.9012,-1.2498 -7.7786,-3.1427 -1.9117,-1.9287 -3.0387,-4.5658 -3.0407,-7.4982 -0.002,-3.0357 1.1217,-5.6858 3.0988,-7.5776 1.9432,-1.8581 4.5689,-3.0266 7.7066,-2.9968 3.3766,0.0317 5.7648,1.0774 7.9497,3.2125 l -1.6361,1.8269 c -1.7402,-1.5176 -3.6173,-2.5585 -6.3119,-2.584 -2.2856,-0.0216 -4.3654,0.8801 -5.8306,2.3666 -1.3635,1.3853 -2.2153,3.3557 -2.2139,5.7784 z m 44.0056,10.5789 -0.005,-8.2207 -12.3814,-0.1168 0.005,8.2207 -2.7627,-0.026 -0.0133,-20.4653 2.7627,0.026 0.006,9.8229 12.3817,0.1168 -0.006,-9.8229 2.7286,0.0255 0.0134,20.4656 -2.7287,-0.0258 z m 24.488,0.2308 -9.0851,-20.5509 2.9325,0.0277 1.7419,3.9394 12.1765,0.1148 1.7719,-3.9062 3.0016,0.0284 -9.0935,20.3794 z m 1.3626,-2.6476 0.614,0.006 4.7676,-11.3474 -10.1299,-0.0955 4.7483,11.4372 z m 23.8765,2.8857 -0.0133,-20.4653 2.5925,0.0244 0.0111,16.7476 0.2038,0.002 7.8035,-10.944 0.8532,0.008 7.7837,11.0906 0.2052,0.002 -0.0108,-16.7477 2.7624,0.0261 0.0133,20.4656 -3.3086,-0.0312 -7.7159,-11.0563 -7.8375,10.9094 -3.3426,-0.0314 z m 53.1692,-6.8661 c 10e-4,1.8411 -0.6461,3.4384 -1.6682,4.657 -1.3972,1.6923 -3.5462,2.6612 -6.2408,2.636 l -9.5159,-0.0899 -0.0133,-20.4653 2.8307,0.0267 0.004,5.8323 6.6856,0.0629 c 2.4213,0.0227 4.3324,0.826 5.7313,2.1696 1.2972,1.3074 2.1855,3.1241 2.187,5.1707 z m -7.7117,-4.8818 -6.8905,-0.0649 0.006,9.6859 6.5834,0.0621 c 1.8752,0.0176 3.1712,-0.5842 4.0238,-1.5656 0.7835,-0.8447 1.192,-1.9998 1.1911,-3.2623 -8e-4,-1.1943 -0.4787,-2.3919 -1.1953,-3.286 -0.7849,-0.9286 -1.9795,-1.5528 -3.7188,-1.5692 z m 23.3025,12.3962 -2.7284,-0.0258 -0.0133,-20.4653 2.7284,0.0258 z m 23.6701,0.5984 c -3.2408,-0.0307 -6.038,-1.3193 -7.9486,-3.3497 -1.8099,-1.9276 -2.8687,-4.529 -2.8706,-7.3608 -0.002,-2.7623 1.0539,-5.3101 2.7921,-7.2039 1.9088,-2.0285 4.7046,-3.3324 8.0132,-3.3013 3.2069,0.0304 5.9361,1.2844 7.8469,3.2797 1.8777,1.9281 2.9364,4.5306 2.9384,7.4291 0.002,2.9338 -1.0877,5.6179 -3.0308,7.5441 -1.9091,1.8572 -4.6029,2.9922 -7.7406,2.9628 z m -8.0566,-10.6844 c 10e-4,2.3196 0.822,4.2718 2.1532,5.7166 1.4672,1.5492 3.5824,2.5243 5.9017,2.5461 2.2516,0.0213 4.3314,-0.8804 5.7966,-2.4018 1.3294,-1.3858 2.1815,-3.3562 2.1798,-5.7098 -10e-4,-2.3193 -0.822,-4.2704 -2.1532,-5.7164 -1.4332,-1.5817 -3.5141,-2.5225 -5.8337,-2.5443 -2.3536,-0.0224 -4.4674,0.913 -5.8986,2.4687 -1.3291,1.4198 -2.1472,3.3565 -2.1458,5.6409 z m 48.0634,10.6863 -0.0105,-16.4063 -13.5643,16.2785 -2.7624,-0.0261 -0.0133,-20.4653 2.7286,0.0255 0.0105,16.4067 13.5303,-16.2788 2.7284,0.0255 0.0133,20.4656 z"></path> </g> </g> </svg> 